<?xml version="1.0" encoding="UTF-8"?>
<svg version="1.1" viewBox="0 0 1024 1536" xmlns="http://www.w3.org/2000/svg">
<path d="m458.5 1415c-38.363-3.102-73.299-12.338-85.498-22.603-6.1392-5.1658-5.6816-3.4063-23.107-88.848-4.9354-24.2-9.3869-46.025-9.8924-48.5-2.2513-11.024-6.0951-28.657-6.5994-30.274-0.30432-0.9757-3.5554-3.1353-7.2247-4.799-12.077-5.4759-12.954-7.0494-18.686-33.54-1.8909-8.738-4.397-20.068-5.569-25.178-1.3259-5.7806-1.8872-10.59-1.4856-12.731l0.64543-3.4405 4.2083-2.848c12.967-8.7758 42.505-14.135 96.638-17.534l18.43-1.1571-10.43-12.943c-10.687-13.262-33.115-38.82-36.525-41.621-1.0476-0.8607-6.1796-2.6175-11.405-3.9041-49.098-12.09-86.619-33.644-102.06-58.63l-2.2868-3.7002 4.7868-3.8761 5.5308 0.63074c21.79 2.485 46.737 11.532 64.522 23.398 7.9028 5.2729 7.8798 4.8826-0.32408-5.5105-9.4118-11.923-25.099-34.734-31.426-45.697l-5.164-8.9476-15.039-7.3182c-43.518-21.177-80.904-52.922-94.396-80.153l-3.6034-7.2728 1.1105-1.7272 1.1105-1.7273 5.8701 0.0833c17.114 0.243 50.474 17.228 69.839 35.559 9.1116 8.6248 10.042 8.5042 5.9189-0.7678-8.6509-19.454-25.047-69.505-32.382-98.851-4.6048-18.423-4.1422-17.524-9.0111-17.524-16.663 0-53.582-35.372-57.194-54.798l-1.1262-6.0561 1.686-2.5731 1.686-2.5731h3.8742c2.4838 0 6.5131 1.333 11.227 3.7141l7.3527 3.7141 10.5 10.568c5.775 5.8123 12.3 13.198 14.5 16.413 5.639 8.2406 5.1999 3.8539-3.3939-33.909l-0.68272-3-5.9617-0.60134c-26.29-2.6518-64.719-52.767-45.938-59.908 6.8847-2.6176 28.601 12.827 40.693 28.942 2.2977 3.0619 4.5958 6.0172 5.1069 6.5672 1.2339 1.3279 0.49946-3.5963-3.2623-21.873-1.6836-8.1801-3.0612-14.98-3.0612-15.111 0-0.13075-2.2149-0.50006-4.922-0.82068-13.333-1.5791-32.368-17.767-40.212-34.196l-2.8645-6-7.9e-4 -5.1786c-1e-3 -6.5667 1.6224-8.3214 7.6989-8.3214h4.5568l5.5183 3.1572c5.5819 3.1937 9.3916 6.6149 19.096 17.149 6.6936 7.2659 6.6328 7.3685 4.1735-7.0455-1.1245-6.5908-2.0445-13.171-2.0445-14.622v-2.6389h-3.3403c-5.6767 0-15.486-5.7312-23.466-13.71l-7.3062-7.3054-3.1274-6.683c-3.4095-7.286-4.6625-15.747-2.837-19.158l1.1471-2.1434h4.5046c7.6658 0 17.93 7.3762 27.831 20l2.745 3.5-0.6577-7.5c-0.36173-4.125-1.1832-10.615-1.8255-14.423l-1.1678-6.9229-4.5-1.4602c-15.072-4.8904-29.467-20.789-31.58-34.878l-0.64782-4.32 1.6661-2.5428c2.2943-3.5015 5.5747-4.5648 10.169-3.2962l3.7779 1.0431 8.181 8.1498c4.4996 4.4824 8.6541 9.046 9.2322 10.141 1.9104 3.6196 1.9281 1.1484 0.082-11.448-2.2735-15.514-1.7907-14.478-7.496-16.075l-4.7972-1.3432-6.14-6.14c-12.008-12.008-16.743-28.738-9.6582-34.121 4.3502-3.3051 12.389 0.39542 18.568 8.5476 4.9883 6.5808 5.0269 6.5517 4.1889-3.1608l-0.71176-8.25-2.8997-4.3947c-1.5948-2.4171-3.9064-6.9171-5.1368-10l-2.2371-5.6053 0.0422-24 2.2326-6.6078c8.1491-24.119 24.316-8.1815 22.932 22.608l-0.44936 10-5.1325 12.615 1.4988 8.1924c0.82432 4.5058 1.8599 9.0924 2.3012 10.192l0.80248 2 0.69765-2c8.3972-24.072 25.547-32.355 25.502-12.316-0.0321 14.375-8.9452 31.345-20.193 38.445l-3.872 2.4443 0.58868 3.2132c0.32378 1.7673 1.1778 7.7132 1.8979 13.213 0.88258 6.7411 1.5556 9.3482 2.0653 8 12.724-33.661 38.35-39.432 29.503-6.6443-3.6742 13.617-16.326 30.264-24.197 31.838-3.2159 0.64318-3.1408-0.11458-1.2688 12.806 0.79686 5.5 1.4576 10.562 1.4683 11.25 0.0455 2.9258 1.7362 0.76582 4.8886-6.2457 9.5513-21.243 26.91-29.605 28.775-13.86l0.58258 4.919-2.2257 7.9681c-4.6747 16.736-13.393 29.636-22.938 33.94l-4.2758 1.9281 0.6562 5.5501c0.36092 3.0525 1.4759 9.6001 2.4777 14.55l1.8215 9 0.76009-2c6.8455-18.012 15.745-30.219 24.771-33.976l3.7728-1.5703 1.9542 1.0459c3.062 1.6388 4.0001 4.3442 4.0001 11.537v6.6682l-3.0064 8.9736c-5.6544 16.877-14.16 29.365-23.384 34.332-4.2768 2.3032-4.225 1.6329-1.37 17.738 2.5228 14.231 3.07 14.77 6.206 6.1093 8.3993-23.197 26.374-39.225 31.803-28.358 7.2004 14.414-9.1335 57.951-24.242 64.617-2.6445 1.1667-4.0062 2.4119-4.0062 3.6632 0 2.4866 6.7688 32.634 7.9075 35.219l0.88094 2 0.52563-1.5c0.2891-0.825 1.7002-5.7297 3.1358-10.899 3.3689-12.132 10.441-25.81 16.365-31.65l4.6103-4.5452 8.0749 0.59422 3.6416 7-0.51892 8c-0.72159 11.124-4.8778 26.282-10.247 37.369l-4.5369 9.3695-5.6696 5.7546c-3.1183 3.165-6.2639 5.9344-6.9903 6.1541l-1.3207 0.39948 3.5056 13.976c13.57 54.102 29.624 101.04 48.236 141.03 6.6935 14.382 10.89 21.74 9.0223 15.82-12.799-40.57-3.323-112.5 12.598-95.625 17.605 18.654 23.616 59.594 18.194 123.9l-1.6992 20.152 2.274 3.6794c2.7553 4.4581 16.873 23.286 22.133 29.517 11.192 13.258 21.664 25.328 43.05 49.615 13.02 14.786 28.806 33.41 35.08 41.385l11.407 14.5 9.4202-0.3514c11.456-0.4273 10.535 0.9144 7.4071-10.792-9.486-35.502-16.6-55.644-33.502-94.856-39.579-91.823-48.439-117.04-64.982-185-3.3474-13.75-6.5538-26.834-7.1254-29.075l-1.0392-4.0753-11.149-7.9247c-24.949-17.734-44.85-41.41-50.159-59.674l-1.6466-5.664 2.311-4.3182 5.3926 0.44719c3.6607 0.30357 8.1155 1.7964 13.871 4.6483l8.4782 4.2011 8.5148 8.06c4.6832 4.433 10.151 10.29 12.152 13.014 4.7637 6.4895 4.7624 6.4949 2.4636-10.244-2.22-16.165-7.8849-62.519-8.2974-67.895l-0.26857-3.5-3.1526 0.30092c-20.447 1.9517-62.73-57.165-47.948-67.036 8.9339-5.9653 41.167 19.397 47.956 37.735 1.859 5.021 1.4006-11.187-0.97066-34.312l-0.54467-5.312-2.757 0.60553c-10.278 2.2574-33.549-16.21-41.65-33.052l-3.6825-7.6563-0.49688-6.1902-0.49689-6.1902 5.0701-5.8932 9.0621 0.1892 5.5505 3.364c6.8607 4.158 17.305 14.336 22.871 22.288l4.189 5.9848 0.26483-4.9128c0.14565-2.702-0.0794-10.533-0.5-17.401l-0.76485-12.488-5.3854-0.77284c-7.9415-1.1397-14.607-5.1774-23.945-14.506l-8.33-8.3213-3.0267-6.6753-3.0267-6.6753-0.0546-5.8002-0.0546-5.8002 4.6714-4.9725 9.1514 0.018 5.091 2.9201c6.0167 3.451 17.057 15.037 20.483 21.495 1.3324 2.5115 2.7608 4.5664 3.1742 4.5664 0.90511 0 1.013-25.443 0.12672-29.875l-0.62507-3.1242h-4.2153c-9.4056 0-24.888-11.834-30.783-23.53-6.4661-12.828-3.4241-23.47 6.709-23.47h4.2392l4.1743 3.0238c5.7829 4.1891 11.752 10.486 16.019 16.896l3.6071 5.42 0.2805-9.42c0.15428-5.181-0.0707-11.834-0.5-14.784l-0.7805-5.3636-5.7023-1.7634c-11.39-3.5224-19.962-10.601-24.838-20.509l-2.4601-5v-13.677l2.3608-1.9116c6.1358-4.9685 21.225 3.8578 28.863 16.884 3.3502 5.7128 3.3521 5.7047 2.6054-10.711l-0.64914-14.27-1.5902-0.50598c-15.638-4.9759-28.016-18.673-28.068-31.059l-0.02196-5.25 2-2c5.4863-5.4863 16.362 0.13517 25.198 13.024l1.6976 2.4764 0.0524-7.1033c0.0289-3.9068-0.23746-9.877-0.5918-13.267l-0.64425-6.1638-2.6058-0.62319c-4.5571-1.0899-8.3427-3.4533-13.804-8.6182l-5.314-5.0258-1.494-5.0307c-0.82163-2.7669-1.4939-7.3543-1.4939-10.194v-5.1635l1.8287-1.655c4.6629-4.2198 12.803 0.31501 20.381 11.354l1.71 2.491-0.59284-10.5-0.59285-10.5-2.2577-5.6531c-7.1364-17.869-0.85593-43.847 10.6-43.847 11.199 0 14.531 23.463 5.9006 41.547l-2.9775 6.2388 0.0153 6.357c8e-3 3.4964 0.40446 6.9713 0.88008 7.722l0.86476 1.365 3.278-6.1502c5.7951-10.873 13.784-15.248 18.443-10.101l1.7909 1.9789-0.99674 13.931-3.5577 7.4916c-4.1216 8.6789-10.454 16.034-15.319 17.793l-3.3985 1.2289 0.0741 6.5491c0.0408 3.602 0.40911 8.5741 0.81854 11.049l0.74442 4.5 2.5481-5.5c6.8838-14.859 18.584-22.923 23.742-16.365 7.7534 9.8568-7.3 39.233-23.202 45.28l-2.6164 0.99474 0.49152 7.2954c1.2194 18.098 1.6623 18.78 5.8774 9.0454 3.4584-7.9874 12.078-17.288 17.759-19.163l3.7068-1.2233 5.5568 2.6546 0.30345 6.4617 0.30345 6.4618-2.1972 6.0291c-4.5781 12.562-14.822 25.001-24.134 29.307l-3.7242 1.722-0.0258 11.75c-0.0297 13.535 0.24924 13.845 4.9742 5.5336 9.7261-17.109 24.268-26.328 30.026-19.034l2.1709 2.75-0.43153 5.2616c-1.1947 14.567-22.014 42.192-32.741 43.444l-2.5236 0.29458 0.35699 13.5c0.40554 15.336 1.0645 17.04 4.2027 10.869 7.7948-15.328 20.584-27.869 28.42-27.869 19.656 0-4.496 52.92-26.986 59.129l-3.5265 0.97372 0.633 9.6984c0.34815 5.3341 0.94056 12.173 1.3165 15.198l0.68347 5.5 2.8113-5.5c12.507-24.468 29.407-38.84 37.728-32.083l2.3608 1.917-0.19869 6.3689c-0.64044 20.529-20.622 51.919-36.217 56.895-5.2518 1.6757-5.1414 1.0323-3.3759 19.665 1.8483 19.507 1.9854 19.762 5.6294 10.474 7.6479-19.493 22.749-38.037 32.458-39.858l3.5592-0.66771 4.9012 5.698-0.58083 6.5456c-2.1995 24.786-22.523 59.913-37.732 65.215l-3.1203 1.0877 0.65658 7.1213c0.89699 9.7286 3.5391 35.681 4.4409 43.621 0.8163 7.1873 0.78549 7.2244 4.56-5.5 6.3443-21.388 23.801-45.5 32.942-45.5 15.728 0 0.58178 74.959-22.545 111.58-4.7637 7.5427-4.7663 6.9238 0.13166 31.12 9.4699 46.781 25.65 101.33 41.023 138.3 1.0291 2.475 5.0015 12.375 8.8277 22 6.5604 16.503 16.252 39.229 29.852 70 8.9328 20.211 14.609 36.526 16.833 48.385 0.37529 2.0004 1.0076 3.8382 1.4052 4.084 0.39759 0.2457 1.026-32.172 1.3966-72.039l0.67364-72.486-8.8305-11.722c-17.732-23.539-26.272-38.196-34.525-59.254-12.177-31.073-16.911-73.555-8.6868-77.957 2.7426-1.4678 2.6249-1.5281 9.2461 4.7382 18.023 17.057 31.609 40.74 40.471 70.547 4.839 16.276 5.3047 16.001 5.3047-3.1384 0-8.7126 0.29058-22.554 0.64574-30.76l0.64573-14.919-4.2686-4.4901c-27.588-29.019-44.934-73.276-43.858-111.9l0.33524-12.04 2.1325-2.1297c8.0678-8.0574 35.242 32.099 45.997 67.973 1.2127 4.0449 1.7275-3.6179 2.9288-43.598l1.316-43.796-8.971-8.363c-27.12-25.282-49.57-76.748-39.031-89.479 8.3432-10.079 38.422 20.998 47.699 49.282l2.7684 8.4403 0.75955-1.9403c0.41776-1.0672 0.83603-7.1153 0.9295-13.44 0.0935-6.325 0.48261-17.35 0.86476-24.5 0.83361-15.596 1.0501-14.718-4.0183-16.3-21.736-6.7837-48.772-43.58-48.861-66.499-0.0921-23.677 32.989-4.5928 50.651 29.221l3.7516 7.182 0.66881-1.808c0.36785-0.99439 0.83634-9.1796 1.0411-18.189l0.37228-16.381-4.5706-1.1619c-19.55-4.9698-41.946-35.001-42.303-56.723l-0.12593-7.6613 4.8486-5.1774h3.6293c10.795 0 30.935 19.247 37.618 35.949 3.1581 7.8928 4.1364 3.7866 4.6285-19.427l0.27514-12.978-4.5796-0.66502c-13.229-1.921-28.161-16.837-34.592-34.555l-2.3285-6.4151v-7.5314-7.5314l5.8462-5.8462 3.8269 9e-3c8.7513 0.0215 20.221 10.273 29.053 25.968l4.7707 8.4776 0.63489-5.4776c0.34918-3.0127 0.88744-10.937 1.1961-17.609l0.56123-12.131-3.6947-0.59145c-13.909-2.2265-29.75-18.704-34.446-35.829l-1.9383-7.0688 0.67421-4.4959c0.44133-2.943 1.5607-5.3175 3.2408-6.8745l2.5666-2.3782h4.7147 4.7147l5.3893 3.6131c6.4777 4.3428 13.662 12.507 17.544 19.937 4.1957 8.0299 5.3206 4.5165 5.3381-16.672l7e-3 -8.6222-3.86-0.61724c-14.749-2.3585-32.119-28.311-30.11-44.989l0.58423-4.8502 2.4429-1.8776c7.4059-5.692 21.03 2.9269 28.966 18.324 4.6119 8.9484 4.5666 9.0194 5.3183-8.346 0.69989-16.167 0.59406-16.9-2.44-16.9-11.623 0-27.656-24.815-25.466-39.415l0.67476-4.4996 6.2796-5.284 3.3983 0.55146c5.6649 0.91929 15.755 11.222 18.485 18.875 1.0458 2.9314 1.6704-0.54069 2.3238-12.916l0.69248-13.117-5.5208-2.6118c-6.8135-3.2233-14.055-10.785-17.468-18.24l-2.5604-5.5926-0.11968-7.287-0.11967-7.287 2.4243-2.5885c5.6898-6.0752 20.03 2.2563 23.688 13.763l0.68315 2.1485 0.78175-2c0.42996-1.1 0.81338-4.983 0.85203-8.6288l0.0703-6.6288-3.4566-5.7402c-7.8729-13.074-5.6383-35.145 4.567-45.109l3.9868-3.8926 8.9468 0.19282 2.573 2.4036c3.7778 3.5292 5.2654 6.9742 6.5284 15.119l1.1295 7.2843-2.1501 8.5-2.1501 8.5-8.9748 13.027 0.1176 12.973 1.1912-1.8945c3.4435-5.4765 7.7079-10.398 11.548-13.327l4.2989-3.2789h9.7984l1.7106 2.6106c1.1529 1.7596 1.7038 4.612 1.6898 8.75l-0.0208 6.1394-3.196 6.2796c-5.2995 10.413-16.895 20.22-23.905 20.22-3.3335 0-3.9358 2.0073-4.5752 15.25-0.57017 11.808 0.16501 16.036 1.8598 10.696 3.8555-12.148 25.127-22.998 30.127-15.368l1.6284 2.4853-0.54102 5.9665c-1.4104 15.554-16.42 33.484-29.965 35.797l-4.1855 0.71452-0.82111 3.952c-0.45161 2.1736-0.69481 8.9066-0.54045 14.962l0.28067 11.01 3.2784-5.1146c8.7967-13.724 23.673-22.755 31.13-18.898 14.929 7.7202-7.1724 43.251-29.602 47.587l-6.1929 1.1974-0.6171 5.1311c-0.3394 2.8221-0.4776 10.045-0.3071 16.05l0.30999 10.919 3.6449-5.4954c8.831-13.315 22.258-23.843 30.408-23.843h4.3015l2.0726 2.6349c10.431 13.261-21.298 56.307-39.917 54.155l-2.5104-0.29017-0.77198 12c-0.42459 6.6-0.64959 14.169-0.5 16.82l0.27198 4.8202 3.9101-5.8202c14.167-21.087 33.406-33.467 40.416-26.006l2.1743 2.3144v6.0598c0 19.277-23.236 46.347-42.115 49.064l-5.243 0.75454-0.73669 2.7546c-0.89978 3.3644-1.5265 30.45-0.72311 31.254 0.31653 0.31653 1.9363-1.8075 3.5994-4.72 6.3962-11.201 20.93-25.3 30.958-30.031l6.24-2.9439 4.0488 0.68405c23.77 4.0159-12.702 61.867-41.196 65.344l-5.3325 0.65082-0.69281 6.5c-0.86664 8.1309-1.4817 34.014-0.80719 33.97 0.275-0.0181 2.975-4.1542 6-9.1912l5.5-9.1583 11.5-11.571c15.743-15.84 27.181-21.304 32.805-15.671l1.6949 1.6975v14.613l-4.705 9.4054c-11.443 22.874-34.288 44.575-48.977 46.524-5.6005 0.74293-9.7001 22.2-7.6441 40.01l0.32577 2.8218 7.9581-11.975c13.813-20.785 32.041-36.475 42.375-36.475h4.0533l1.5567 2.2225c11.023 15.738-30.104 77.266-53.943 80.701l-4 0.57645-1.1112 31.561c-0.61117 17.359-1.4375 37.609-1.8363 45-0.76102 14.106-0.25383 15.22 2.9294 6.4391 8.2277-22.697 30.872-52.004 47.884-61.974l4.6665-2.7348 4.9678 3.255v3.4116c0 26.841-23.542 72.58-54.02 104.95-4.9481 5.256-8.9804 10.411-8.9804 11.481 0 3.3122-1.903 61.791-2.5254 77.607-0.63765 16.202 0.15508 17.805 2.9676 6 5.1401-21.574 17.286-48.412 31.68-70l9.3345-14 14.022-14.081c37.24-37.398 41.706-33.567 27.006 23.166-16.807 64.869-39.374 109.09-77.858 152.56l-8.5367 9.643-1.1752 52.357c-1.1476 51.13-0.52829 118.96 1.0699 117.19 0.41248-0.4579 1.7499-4.6576 2.972-9.3326 6.1952-23.698 19.38-58.86 35.81-95.5 4.9327-11 12.815-28.592 17.517-39.093 32.887-73.452 48.589-118.23 65.596-187.05 9.633-38.981 24.12-112.3 24.12-122.07v-2.2917h-2.9349c-21.704 0-51.926-61.872-35.485-72.645l2.5101-1.6447 4.2047 1.2528c13.354 3.9789 26.946 21.19 35.088 44.43 1.1422 3.2599 6.4919-27.959 6.5997-38.513l0.01655-1.62-4.2902-0.48356c-17.763-2.0022-36.71-27.255-36.71-48.928v-6.6949l5.3626-6.3731 9.7683 0.93861 5.6475 3.8905c7.1634 4.9348 13.675 13.018 18.746 23.269 5.3251 10.766 6.1557 9.0557 8.1479-16.779l0.62459-8.0995h-2.6815c-19.968 0-44.27-44.8-31.324-57.746l2.4308-2.4308 9.0672-0.137 4.6396 2.719c5.8361 3.4202 12.475 11.765 17.579 22.095 2.174 4.4 3.9939 7.775 4.0442 7.5 4.3937-24.039 3.9942-29.492-2.3138-31.585l-5.2382-1.7377-12.238-12.23-4.5669-9.4737c-13.213-27.41 3.46-43.602 20.706-20.108 3.0271 4.1238 4.5959 7.3631 8.7283 18.023 1.4878 3.8378 2.4393-0.73081 4.3656-20.962l0.62589-6.5735-4.2502-1.2734c-19.35-5.7976-34.15-51.08-16.695-51.08 7.5218 0 21.766 15.796 21.814 24.191 0.0281 4.8653 1.867 1.8529 2.4133-3.9532 0.34863-3.7058 0.88492-9.2414 1.1918-12.301l0.55787-5.5636-4.1258-1.8605c-14.154-6.3827-24.1-37.142-15.365-47.523 5.1538-6.125 12.11-2.2565 18.518 10.299l3.1706 6.2118 0.7248-2.5c1.3979-4.8216 0.90108-10.026-1.6922-17.729l-2.6163-7.771 0.46596-9.04 0.46597-9.04 2.8056-6.2518c4.67-10.406 9.7845-13.32 15.274-8.701l2.9321 2.4672 1.1446 5.6996c1.9504 9.7118 0.23277 20.51-5.4049 33.978l-2.5585 6.1123 0.60802 11.775 2.9192-4.9669c4.0138-6.8292 11.554-14.149 15.459-15.006l3.2035-0.7036 5.1338 3.3638-0.38183 6.7574-0.38183 6.7574-3.8274 7.7442c-4.5176 9.1407-13.769 19.079-20.778 22.321l-4.6537 2.1525-0.71858 9.5846c-0.88326 11.781-0.60255 12.115 3.9217 4.6673 5.7866-9.5258 14.224-16.172 20.532-16.172h3.0266l1.6586 2.5314 1.6586 2.5314-0.59849 5.0533c-0.32917 2.7793-2.3027 8.5004-4.3856 12.714l-3.7871 7.6604-7.5 7.5906c-4.125 4.1748-9.3722 8.4521-11.66 9.505l-4.1605 1.9144-0.63553 3c-0.89675 4.2331-1.9434 19.5-1.3369 19.5 0.277 0 2.3308-2.6048 4.5641-5.7886 10.482-14.942 22.365-21.275 28.19-15.023 9.0937 9.7609-17.213 49.811-32.718 49.811-3.0535 0-6.163 15.093-5.0718 24.617l0.32852 2.8674 4.6556-6.5389c24.463-34.359 49.626-26.119 26.282 8.6055-9.2303 13.73-19.448 22.368-29.363 24.824l-4.5441 1.1255-1.7358 13.946c-2.0906 16.796-2.3969 16.346 5.0036 7.3608 17.06-20.713 31.083-29.017 37.748-22.352l2.4546 2.4545v10.009l-4.3005 8.3576c-10.394 20.201-27.111 35.667-40.631 37.593l-4.5684 0.65077-1.7422 15.49c-2.2773 20.248-2.1962 20.578 3.0814 12.526 6.3007-9.6126 19.812-23.381 27.268-27.786l6.3474-3.75h4.1178c5.5656 0 7.4277 2.1995 7.4277 8.7733v5.1159l-3.3631 7.3799c-10.512 23.068-32.2 44.913-46.149 46.485l-4.3315 0.48822-0.51029 2.1287c-0.28066 1.1708-1.4645 8.8787-2.6308 17.129s-2.3521 15.788-2.6351 16.75c-0.96256 3.2736 1.1111 1.7609 4.1149-3.0018 15.912-25.229 40.894-44.107 47.991-36.264l1.7953 1.9838-0.52896 5.8334c-2.1954 24.211-38.075 66.728-54.883 65.035l-3.3385-0.33624-0.31309 2c-1.339 8.5535-11.367 54.482-16.157 74-6.8911 28.078-6.9897 26.476 1.038 16.861 11.993-14.364 33.73-29.163 45.406-30.914l4.6717-0.70056 3.2425 3.2425-1.2464 4.66c-5.0046 18.712-32.05 49.442-60.13 68.323-10.937 7.3542-9.6075 5.1846-17.791 29.028-15.307 44.596-26.585 72.6-50.544 125.5-26.673 58.892-45.618 110.82-45.699 125.25l-0.00701 1.25h22.883l4.7648-6.25c7.6043-9.9745 23.765-29.067 37.879-44.75 27.632-30.705 38.409-42.879 47.281-53.412l9.1921-10.912v-14.138c0-57.311 17.255-112.37 41.647-132.89 14.464-12.171 11.312 36.28-5.5909 85.937-6.9033 20.281-4.732 17.169 14.406-20.648 7.395-14.612 14.762-29.912 16.371-34s6.4102-15.983 10.669-26.433c6.3716-15.635 15.564-40.53 20.715-56.101l1.026-3.1015-4.3722-4.4256c-13.13-13.29-24.034-46.774-22.618-69.458 2.1761-34.881 26.657-11.219 34.011 32.873 2.0153 12.082 2.0793 11.978 10.805-17.524 4.0169-13.581 4.2035-15.763 1.3482-15.763-7.2009 0-20.552-22.73-24.943-42.463l-1.728-7.767 0.45348-10.135c1.4623-32.681 27.523-14.458 34.843 24.365 2.1202 11.244 2.595 10.513 8.4394-13 1.4354-5.775 2.8374-11.266 3.1154-12.203l0.50548-1.7029-3.8474-1.9628c-21.477-10.957-34.087-68.131-15.026-68.131h2.8543l4.8788 4.5635c5.5508 5.1921 11.936 16.626 15.135 27.101 2.524 8.2651 3.5526 9.5706 4.515 5.7302 0.39894-1.592 1.9668-7.6196 3.4842-13.395l2.7589-10.5-2.135-1.5c-10.03-7.047-18.008-19.837-21.85-35.031l-2.0788-8.2205 0.73838-14.622 4.8162-5.1266h3.4813c8.1774 0 15.353 9.7518 22.731 30.893 0.82597 2.3667 1.4504 0.72141 3.9874-10.507 3.1146-13.784 3.1137-13.798-0.99471-16.222-13.582-8.0137-24.21-44.508-15.498-53.22 6.8966-6.8966 20.483 5.5507 24.348 22.306 1.1495 4.9836 2.2579 2.8976 4.7824-9 2.8442-13.405 2.8807-13.029-1.5463-15.903-7.7234-5.0146-15.693-27.573-14.059-39.795l0.66156-4.948 2.802-2.802c6.1426-6.1426 13.564-0.11866 18.426 14.956 1.8904 5.8615 3.5298 6.0597 3.5298 0.42662 0-2.0337 0.46827-5.2696 1.0406-7.191s1.2692-8.6684 1.5486-14.993c0.87083-19.713 5.8937-35.021 13.626-41.527 16.235-13.661 17.053 25.615 0.94529 45.391l-4.3887 5.3881-1.3715 6.555c-1.5175 7.2527-1.0319 8.984 1.4591 5.2019 8.0372-12.203 20.067-19.063 24.616-14.037l1.7849 1.9723-0.45927 4.7777c-1.338 13.919-19.286 35.278-29.645 35.278-3.5335 0-4.3871 2.8248-6.7996 22.5l-0.49046 4 2.2381-3c1.2309-1.65 4.9956-5.7463 8.366-9.1028l6.1279-6.1028 10.606-3.5227 2.3707 1.0802c12.16 5.5406-6.1175 35.391-28.77 46.985l-7.2793 3.7258-2.2094 9.9686c-3.2725 14.765-3.4021 14.701 7.4341 3.6806 12.439-12.65 23.35-17.712 28.05-13.012 8.8662 8.8662-24.101 50.8-39.937 50.8-3.1856 0-9.8627 19.039-9.8627 28.122 0 0.40956 4.8421-4.0974 10.76-10.016l10.76-10.76 15.362-7.5925 2.803 0.70351c15.999 4.0155-8.3904 42.523-34.686 54.764-4.675 2.1764-9.1253 4.272-9.8896 4.657-1.2285 0.61888-8.0666 22.53-8.0982 25.949-7e-3 0.7303 3.7002-2.3632 8.2377-6.8744 9.163-9.1098 15.33-14.05 24.191-19.38l5.9412-3.5734h4.6088c21.458 0-13.266 50.177-43.572 62.963-8.7862 3.7068-7.312 1.0593-13.941 25.037-0.68424 2.475-1.9799 6.9712-2.8792 9.9916l-1.6351 5.4916 9.5228-10.159c20.433-21.799 40.037-34.399 45.313-29.124 10.708 10.708-36.166 66.431-58.595 69.655-5.4837 0.78825-4.6181-0.87001-13.125 25.145-3.8668 11.825-8.3421 24.875-9.9452 29-3.7334 9.6063-3.8636 9.5927 7.0764 0.73968 14.996-12.135 30.145-20.083 43.563-22.854l6.0753-1.2548 3.3454 2.7764-0.53943 3.3241c-2.3667 14.584-41.205 51.417-71.947 68.233l-7.7913 4.2617-11.898 24.137c-6.5439 13.275-14.846 29.279-18.448 35.564-7.911 13.801-7.9569 13.703 2.5138 5.4185 33.894-26.815 73.035-44.718 108.92-49.817 14.231-2.0224 18.267-1.9441 21.135 0.41018l2.3608 1.9384-2.8069 5.4361c-25.948 50.253-126.05 112.69-180.68 112.69-1.919 0-3.858 2.0431-34.641 36.501-19.288 21.591-32.257 36.55-39.799 45.906l-4.7609 5.9066 1.3459 0.7097c0.74022 0.3904 10.346 0.9899 21.346 1.3323 63.225 1.968 109.65 9.6314 119.86 19.787l3.8561 3.8351-0.43997 3.7615c-0.5729 4.898-11.565 52.967-12.895 56.394-1.6147 4.1583-5.7682 7.4797-14.098 11.274l-7.7213 3.517-0.52924 2.2883c-0.29107 1.2586-1.8756 8.0404-3.5212 15.071s-4.359 19.63-6.0297 28c-1.6707 8.3697-3.9018 19.043-4.9579 23.718s-2.8824 13.225-4.0584 19c-3.9863 19.576-14.185 66.472-15.603 71.742-3.9669 14.752-29.103 24.903-76.358 30.835l-12.5 1.5692-44.5 0.3471c-24.475 0.1909-49.45-0.053-55.5-0.5424z" fill="#caa5b0"/>
<path d="m470 1413.9c-52.67-2.8475-94.906-14.825-100.64-28.539-1.6577-3.9673-6.1408-24.521-16.322-74.828-18.269-90.276-17.929-89.016-24.652-91.351-11.731-4.0746-13.606-7.1822-18.793-31.149-1.964-9.075-4.4653-20.325-5.5585-25-3.4644-14.816-2.7518-17.562 5.6696-21.846 13-6.6135 54.872-13.35 91.524-14.725 15.957-0.5986 20.767-1.1387 20.767-2.3319 0-1.9789-36.073-44.931-45.183-53.8l-4.317-4.2026-13.5-3.4631c-47.353-12.147-79.454-30.482-96.795-55.286-4.2786-6.1201-1.7508-7.5528 10.171-5.7644 24.431 3.665 48.045 13.342 64.966 26.622 9.5726 7.5132 8.6544 4.6262-3.4845-10.956-10.644-13.664-23.502-32.312-31.453-45.62l-5.8989-9.8725-15.503-7.7271c-47.615-23.733-96.003-67.02-96.003-85.883 0-12.253 52.103 11.497 76.255 34.759 12.057 11.613 13.182 11.605 8.1491-0.0618-12.422-28.795-29.564-82.01-36.833-114.34-1.4837-6.6-3.5914-14.7-4.684-18-2.398-7.2432-2.7703-8.7898-6.8603-28.5-1.769-8.525-4.7488-21.482-6.6219-28.793s-3.4055-14.455-3.4055-15.876-1.9763-12.539-4.3918-24.707c-2.4155-12.168-4.6926-24.978-5.0602-28.467-0.36762-3.4888-1.1327-7.5388-1.7002-9s-1.4066-5.1317-1.8648-8.1567c-0.45819-3.025-1.5303-10.033-2.3824-15.573s-1.797-13.865-2.0996-18.5c-0.30262-4.6349-0.97614-10.677-1.4967-13.427-2.1679-11.452-5.6052-39.087-5.2186-41.956 0.14495-1.0756-0.25454-5.3506-0.88774-9.5s-1.262-9.1194-1.3974-11.044-1.0435-8.9-2.018-15.5-1.7274-14.025-1.6729-16.5c0.0544-2.475-0.78047-11.674-1.8553-20.443-1.0748-8.7685-1.9508-17.768-1.9465-20l8e-3 -4.0573 2.6327-1.2222c4.1842-1.9425 4.2301-1.798 7.3738 23.222 0.62195 4.95 1.8246 13.725 2.6726 19.5s1.9234 14.55 2.3899 19.5c1.448 15.366 2.7162 25.936 3.2994 27.5 0.74932 2.0092 4.4838 27.256 5.6949 38.5 0.53316 4.95 1.2077 9.6623 1.499 10.472 0.48467 1.3468 4.5056 25.039 5.8599 34.528 0.31399 2.2 0.98869 8.3793 1.4993 13.732s1.6076 10.978 2.4377 12.5c2.1407 3.9263 7.5624 32.004 9.1273 47.268 0.36652 3.575 1.4838 8.3 2.4829 10.5s3.5037 11.65 5.5659 21 4.7931 20.521 6.0688 24.824c1.2757 4.3033 2.823 10.601 3.4385 13.996 0.61551 3.3943 1.7563 7.2985 2.5352 8.6759 0.77883 1.3774 2.5033 7.0044 3.8321 12.504 13.464 55.727 31.87 108.7 52.501 151.09 11.858 24.369 14.58 27.662 9.6755 11.707-1.319-4.2909-2.6699-9.1516-3.002-10.802-0.33212-1.65-1.5029-7.4991-2.6018-12.998l-1.9982-9.998v-16.142c0-22.797 4.366-43 10.667-49.362l2.4761-2.5 3.501 4c13.692 15.644 22.614 60.549 19.172 96.5-0.44749 4.675-1.4958 16.557-2.3296 26.404l-1.516 17.904 2.0072 4.0955c1.9448 3.9682 15.375 22.262 23.522 32.041 9.5273 11.436 18.358 21.666 25.943 30.055 26.251 29.033 53.177 61.063 60.317 71.75l2.5054 3.75h7.7421c4.2582 0 9.2004-0.2917 10.983-0.6481l3.2406-0.6481-0.56739-4.1396c-0.67563-4.9293-8.2522-31.425-13.601-47.564-4.523-13.647-15.146-40.195-26.61-66.5-32.789-75.237-45.178-111.24-60.911-177-2.6316-11-5.3874-22.25-6.1238-25l-1.339-5-11.289-8c-28.733-20.362-54.833-54.521-50.428-66l0.67395-1.7563 4.5884 0.51718c13.144 1.4816 35.878 18.795 44.905 34.198 4.643 7.9227 5.1486 6.6865 3.0504-7.4586-1.3053-8.7998-3.4567-26.032-7.1165-57-1.2849-10.872-2.7007-28.158-3.8496-47-0.18446-3.025-0.85379-14.05-1.4874-24.5s-1.5946-24.175-2.1355-30.5c-1.3008-15.211-2.2629-34.5-2.5187-50.5-0.82907-51.85-1.6812-87.756-2.3256-98-0.41521-6.6-0.42149-13.546-0.014-15.435 0.40755-1.8892 0.54482-8.6392 0.30506-15-0.23975-6.3608-0.9026-25.965-1.473-43.565-1.5525-47.903-1.9802-58.041-2.9117-69-0.9327-10.974-0.93127-10.978 3.6006-11.823l3.1528-0.58779 0.53503 2.2056c0.29426 1.213 0.79565 9.8556 1.1142 19.206 0.64923 19.056 1.9937 44.316 4.0982 77 1.2528 19.457 2.2015 40.518 3.9412 87.5 0.27495 7.425 0.80506 17.55 1.178 22.5 0.37297 4.95 0.76119 13.95 0.86272 20 0.10152 6.05 0.70297 16.85 1.3366 24s1.5882 21.1 2.1215 31c0.53322 9.9 1.6188 23.4 2.4123 30s1.9413 18.75 2.5506 27c0.60927 8.25 1.5577 17.925 2.1075 21.5 1.1639 7.5671 3.2718 26.756 5.8538 53.289 1.0056 10.334 2.0981 19.059 2.4277 19.389 0.96987 0.96983 2.6553-4.4915 2.6553-8.604 0-18.408 23.249-56.074 34.611-56.074h2.3114l1.1621 4.25c5.3435 19.542-8.9626 74.604-27.044 104.09l-5.0094 8.1686 1.029 6.4963c10.583 66.809 34.521 138.38 82.442 246.48 10.59 23.89 14.375 35.021 18.476 54.338 0.9719 4.5778 2.2742 8.8303 2.894 9.45l1.1269 1.1269 0.0407-1.95c0.0224-1.0725 0.2169-20.175 0.43226-42.45s0.69259-56.25 1.0605-75.5l0.66892-35-8.7321-11.5c-35.064-46.179-56.493-108.14-46.495-134.43 6.1346-16.135 46.037 47.743 52.621 84.239 0.85538 4.7412 2.3643 7.6472 3.4028 6.5533 0.44765-0.47155 1.0913-12.557 1.4303-26.857s0.86972-29.395 1.1794-33.545l0.56297-7.5448-5.1667-5.4552c-26.669-28.158-43.169-68.844-43.412-107.05l-0.093-14.593 1.3724-1.6571c6.5794-7.9439 33.978 31.706 43.08 62.343 5.7578 19.382 5.9908 17.712 7.6813-55.07l0.66366-28.57-12.412-12.43c-23.34-23.373-36.884-51.449-36.884-76.459 0-26.082 37.843 10.295 47.542 45.701 4.4858 16.375 4.6792 15.787 6.0765-18.491 2.4416-59.892 4.528-97.343 5.637-101.18 0.63562-2.2 1.2012-9.625 1.2569-16.5 0.18156-22.419 1.7254-51.466 2.8078-52.829 0.59478-0.74902 1.158-7.2934 1.2909-15 0.40802-23.659 1.4844-41.458 2.883-47.671 0.7453-3.3111 1.6398-15.635 1.9961-27.5 0.35506-11.825 1.1442-24.875 1.7537-29s1.2187-12 1.3539-17.5c0.54801-22.3 2.1592-43.503 3.4213-45.023l1.2781-1.54-0.58902-9.2183c-0.32396-5.0701-0.16608-16.418 0.35085-25.218 0.51694-8.8 1.3706-23.425 1.8971-32.5 0.52645-9.075 1.2603-19.26 1.6307-22.634l0.67355-6.1339 7.9101-0.1092-0.59014 4.6885c-0.32458 2.5787-0.84094 17.064-1.1475 32.188s-0.69028 29.525-0.85278 32c-0.16249 2.475-0.79843 14.4-1.4132 26.5s-1.3663 26.275-1.6701 31.5-0.74679 20.075-0.98444 33c-0.23766 12.925-0.95076 27.241-1.5847 31.813-0.63391 4.5724-0.89049 9.6239-0.57017 11.226s0.12469 11.361-0.43473 21.687c-0.55942 10.326-1.6781 34.974-2.4859 54.774-2.5373 62.19-3.3118 79.659-4.0567 91.5-0.39793 6.325-0.7943 14.875-0.88081 19-0.27883 13.294-1.698 49.361-2.1249 54-0.22774 2.475-0.8507 16.425-1.3844 31-2.3676 64.663-3.1334 84.108-3.6624 93-0.66587 11.193 0.34727 11.052 3.5849-0.5 9.7018-34.615 57.155-89.312 57.07-65.781-0.0977 26.913-22.897 71.106-53.078 102.88l-9.6103 10.118-0.67095 28.891c-0.91929 39.584-1.5772 58.946-2.2106 65.055-1.6147 15.576 0.88583 14.465 5.0536-2.2454 13.631-54.651 53.859-114.57 84.826-126.34l2.6708-1.0154 2.2636 4.2296-1.1997 7.6035c-10.601 67.191-41.49 135.58-82.651 182.98-5.4321 6.2558-10.381 12.245-10.998 13.309-2.6696 4.6049-3.5147 177.01-0.88058 179.65 0.84319 0.8432 2.4684-1.9199 2.487-4.2282 0.0293-3.6325 8.9156-34.194 13.841-47.603 10.432-28.397 12.268-32.719 45.89-108 3.5618-7.975 8.4077-19.225 10.769-25s6.7672-16.35 9.7914-23.5c20.844-49.28 39.339-112.77 54.621-187.5 4.241-20.74 4.3713-21.45 9.1673-50 1.7093-10.175 3.7441-20.428 4.5218-22.785 0.77771-2.3567 1.414-7.1877 1.414-10.736 0-3.5479 0.44322-8.3697 0.98494-10.715s1.9058-11.689 3.0312-20.764 2.6856-20.1 3.467-24.5 1.6758-12.05 1.9877-17c0.31185-4.95 1.2019-12.825 1.9779-17.5s1.7071-11.875 2.069-16 1.2935-9.4282 2.0702-11.785c0.77665-2.3567 1.4166-7.0817 1.4221-10.5 9e-3 -5.6053 0.87344-14.337 3.9089-39.486 0.54905-4.5489 1.2946-9.8499 1.6566-11.78 0.3621-1.9302 0.77286-5.4083 0.9128-7.7293 0.22438-3.7214 1.5452-15.618 4.5208-40.72 0.48899-4.125 1.5858-14.7 2.4374-23.5s2.205-21.4 3.0076-28c0.80256-6.6 1.7208-16.95 2.0406-23s0.8468-12.688 1.1712-14.75l0.58977-3.75h2.7652c3.9453 0 4.2673 12.281 1.0226 39-1.8166 14.959-3.4854 37.297-3.2871 44 0.10576 3.575-0.7777 14.6-1.9632 24.5-1.1856 9.9-2.2543 21.6-2.3751 26-0.34498 12.571-2.4294 36.154-4.0426 45.737-0.8089 4.8054-1.1928 10.219-0.85316 12.029s-0.0889 8.3568-0.95228 14.547c-0.86341 6.1904-1.5752 13.602-1.5817 16.471-7e-3 2.8686-0.70035 7.6906-1.5418 10.716-0.84148 3.025-1.7126 10.225-1.9358 16-0.67039 17.343-3.8001 45.164-5.9621 53-0.83467 3.025-1.4822 8.2-1.4389 11.5 0.0433 3.3-1.1276 13.65-2.6018 23-1.4742 9.35-3.0578 19.925-3.5191 23.5-0.46126 3.575-1.3338 8.075-1.939 10-0.60521 1.925-1.5384 7.9932-2.0737 13.485-1.3266 13.608-13.874 71.484-21.531 99.317-2.7602 10.033-2.3841 11.163 1.9195 5.7664 16.583-20.794 31.447-32.465 48.423-38.023 25.619-8.3876-12.182 45.819-49.484 70.96-3.1919 2.1513-7.4574 5.1789-9.4788 6.728l-3.6754 2.8165-4.7016 14.225c-11.659 35.274-30.567 83.18-47.454 120.23-23.497 51.548-31.139 69.917-39.522 95-4.8938 14.643-12.461 41.422-12.469 44.124-4e-3 1.3562 22.663 2.5149 25.09 1.2825 0.87613-0.4449 3.5497-3.4185 5.9413-6.6078 8.8952-11.863 27.474-33.386 59.384-68.799 12.176-13.512 21.858-24.639 28.593-32.859l6.4392-7.8595 0.092-14.141c0.35148-53.994 10.907-92.801 33.698-123.89 20.871-28.47 17.652 30.644-4.7958 88.054-2.4441 6.251-4.4439 12.099-4.4439 12.994v1.6291l1.4141-1.4643c3.4581-3.5808 36.108-66.299 40.586-77.964 0.73905-1.925 4.1272-10.25 7.5292-18.5 6.8348-16.575 16.476-42.575 21.507-58 1.7939-5.5 4.4994-12.7 6.0123-16 3.2027-6.9861 4.9376-12.867 4.9454-16.764 3e-3 -1.52 0.43641-3.545 0.96298-4.5 1.1891-2.1566 13.043-42.279 13.043-44.147 0-0.7482 1.0992-2.3791 2.4428-3.6242 3.0527-2.8292 5.8863-12.194 5.0456-16.676-0.4174-2.2249 0.17318-5.7829 1.7932-10.804 1.3286-4.1174 3.893-13.561 5.6986-20.986l3.283-13.5 6.2368-6.615 0.0875-9.1925 0.0874-9.1925 4.4224-16.656c2.4323-9.1607 5.1365-17.486 6.0093-18.5 2.5071-2.9135 5.1857-14.115 4.4603-18.652-0.37665-2.3554 0.0179-6.8475 0.97283-11.077 0.88353-3.9133 2.5278-11.165 3.6538-16.115 1.1261-4.95 2.6526-9.9728 3.3922-11.162 0.73959-1.1889 2.0471-6.8139 2.9056-12.5 2.0327-13.463 6.2674-34.135 8.1611-39.838 1.9873-5.985 2.4793-8.5627 6.8714-36 0.74837-4.675 1.6736-9.5488 2.0562-10.831l0.69549-2.3306 2.1123 0.56697c1.1618 0.31183 2.4498 0.57311 2.8623 0.58062 1.5305 0.0279 0.27883 11.07-2.7786 24.514-0.75051 3.3-2.0682 10.95-2.9281 17-2.3812 16.752-4.5649 29.397-6.1597 35.669-0.79283 3.1178-1.815 8.5178-2.2714 12-0.84411 6.4397-6.6121 33.002-10.226 47.092-1.0948 4.2686-1.7447 8.159-1.4442 8.6453s-0.59022 5.7687-1.9794 11.739c-1.3892 5.9701-3.4054 15.13-4.4804 20.355-1.075 5.225-2.6599 11.489-3.5219 13.919-0.86203 2.4307-1.8044 7.3807-2.0942 11-0.28978 3.6193-2.3158 13.331-4.5022 21.581-4.026 15.191-4.5753 16.995-10.013 32.888l-3.0411 8.8881 1.1215 2.1119 1.1215 2.1119-5.1036 17.5c-2.807 9.625-5.6783 19.75-6.3806 22.5-0.70231 2.75-2.6926 8.3665-4.4228 12.481-1.7302 4.1146-3.1459 9.1115-3.1459 11.104 0 4.1126-12.372 42.5-19.362 60.077-5.731 14.411-5.7489 14.171 0.61205 8.1976 19.346-18.169 43.025-31.299 56.531-31.348 18.044-0.0653-30.87 50.921-67.676 70.543l-7.6056 4.0547-12.056 24.012c-10.613 21.138-20.108 38.67-26.635 49.176-4.1898 6.7442-0.5263 5.1379 12.191-5.3452 44.741-36.882 142.58-69.292 126.53-41.918-16.859 28.767-61.902 67.372-101.53 87.02-23.848 11.823-38.117 16.264-70.762 22.025l-9.2617 1.6343-16.738 18.654c-71.562 79.752-67.798 72.28-37.157 73.783 69.777 3.4242 109.07 9.7418 119.17 19.16l2.75 2.5649v3.2621c0 5.5195-11.976 56.671-13.899 59.364-2.3559 3.2995-7.1314 6.4807-12.909 8.5995-7.7683 2.8488-8.3753 4.6072-18.779 54.4-2.4706 11.825-6.9313 33.2-9.9125 47.5-5.2612 25.237-11.759 55.108-13.652 62.757-5.4948 22.208-82.693 35.646-175.85 30.61z" fill="#d98454"/>
<path d="m581 1404.8c-4.3e-4 -2.3564 0.87203-9.0094 1.9388-14.784 1.0668-5.775 2.9018-16.35 4.0778-23.5s2.9923-17.95 4.0362-24c2.2181-12.855 7.6018-46.055 9.5675-59 0.75164-4.95 2.2244-13.725 3.2727-19.5 2.3404-12.892 3.2163-12.122-12.401-10.911-67.354 5.2203-188.06 0.2634-236.49-9.7118-15.238-3.1384-15.672-3.3597-16.978-8.6441-0.57528-2.3282-1.5218-5.9643-2.1033-8.0804-1.4216-5.1728-1.3443-5.1989 9.8195-3.3148 66.435 11.212 167.1 14.595 247.72 8.3257l14.962-1.1635 0.78852-3.5c3.4638-15.374 9.2737-50.847 8.4611-51.659-0.20017-0.2002-3.6963 0.075-7.7691 0.6124-14.723 1.9411-41.254 3.0876-85.405 3.6904l-45 0.6144-25-1.7227c-26.455-1.823-27.951-2.0317-21.852-3.0488 7.3216-1.221 8.792-3.0486 3.3314-4.1408-6.9628-1.3925-3.2533-2.3458 9.1285-2.3458 15.588 0 16.561-0.8251 1.7936-1.5208-123.29-5.8078-156.87-23.07-61.401-31.557 7.15-0.6356 13.45-1.585 14-2.1098 0.64221-0.6127 0.10553-0.7714-1.5-0.4435-1.375 0.2808-7.1404 0.7852-12.812 1.1208l-10.312 0.6102 1.0485-1.9592 1.0485-1.9591 8.5001-0.7081c4.675-0.3894 8.2798-1.0644 8.0107-1.4999s1.8744-0.7611 4.7634-0.7236c2.889 0.038 9.2977-0.3409 14.241-0.8409l8.9886-0.9093 0.2985-1.5618c0.45256-2.368-32.895-42.896-44.959-54.641l-4.317-4.2026-13.5-3.4631c-47.353-12.147-79.454-30.482-96.795-55.286-4.2786-6.1201-1.7508-7.5528 10.171-5.7644 24.431 3.665 48.045 13.342 64.966 26.622 9.5726 7.5132 8.6544 4.6262-3.4845-10.956-10.644-13.664-23.502-32.312-31.453-45.62l-5.8989-9.8725-15.503-7.7271c-47.615-23.733-96.003-67.02-96.003-85.883 0-12.253 52.103 11.497 76.255 34.759 12.057 11.613 13.182 11.605 8.1491-0.0618-12.422-28.795-29.564-82.01-36.833-114.34-1.4837-6.6-3.5914-14.7-4.684-18-2.398-7.2432-2.7703-8.7898-6.8603-28.5-1.769-8.525-4.7488-21.482-6.6219-28.793s-3.4055-14.455-3.4055-15.876-1.9763-12.539-4.3918-24.707c-2.4155-12.168-4.6926-24.978-5.0602-28.467-0.36762-3.4888-1.1327-7.5388-1.7002-9s-1.4066-5.1317-1.8648-8.1567c-0.45819-3.025-1.5303-10.033-2.3824-15.573s-1.797-13.865-2.0996-18.5c-0.30262-4.6349-0.97614-10.677-1.4967-13.427-2.1679-11.452-5.6052-39.087-5.2186-41.956 0.14495-1.0756-0.25454-5.3506-0.88774-9.5s-1.262-9.1194-1.3974-11.044-1.0435-8.9-2.018-15.5-1.7274-14.025-1.6729-16.5c0.0544-2.475-0.78047-11.674-1.8553-20.443-1.0748-8.7685-1.9508-17.768-1.9465-20l8e-3 -4.0573 2.6327-1.2222c4.1842-1.9425 4.2301-1.798 7.3738 23.222 0.62195 4.95 1.8246 13.725 2.6726 19.5s1.9234 14.55 2.3899 19.5c1.448 15.366 2.7162 25.936 3.2994 27.5 0.74932 2.0092 4.4838 27.256 5.6949 38.5 0.53316 4.95 1.2077 9.6623 1.499 10.472 0.48467 1.3468 4.5056 25.039 5.8599 34.528 0.31399 2.2 0.98869 8.3793 1.4993 13.732s1.6076 10.978 2.4377 12.5c2.1407 3.9263 7.5624 32.004 9.1273 47.268 0.36652 3.575 1.4838 8.3 2.4829 10.5s3.5037 11.65 5.5659 21 4.7931 20.521 6.0688 24.824c1.2757 4.3033 2.823 10.601 3.4385 13.996 0.61551 3.3943 1.7563 7.2985 2.5352 8.6759 0.77883 1.3774 2.5033 7.0044 3.8321 12.504 13.464 55.727 31.87 108.7 52.501 151.09 11.858 24.369 14.58 27.662 9.6755 11.707-1.319-4.2909-2.6699-9.1516-3.002-10.802-0.33212-1.65-1.5029-7.4991-2.6018-12.998l-1.9982-9.998v-16.142c0-22.797 4.366-43 10.667-49.362l2.4761-2.5 3.501 4c13.692 15.644 22.614 60.549 19.172 96.5-0.44749 4.675-1.4958 16.557-2.3296 26.404l-1.516 17.904 2.0072 4.0955c1.9448 3.9682 15.375 22.262 23.522 32.041 9.2655 11.121 18.298 21.584 25.514 29.555 18.808 20.774 39.488 44.906 49.825 58.14 6.1683 7.8978 12.084 15.389 13.145 16.646l1.93 2.2868 9.793-0.2868 9.793-0.2867-0.15354-5c-0.15465-5.0361-6.229-27.214-13.284-48.5-4.523-13.647-15.146-40.195-26.61-66.5-32.789-75.237-45.178-111.24-60.911-177-2.6316-11-5.3874-22.25-6.1238-25l-1.339-5-11.289-8c-28.733-20.362-54.833-54.521-50.428-66l0.67395-1.7563 4.5884 0.51718c13.144 1.4816 35.878 18.795 44.905 34.198 4.643 7.9227 5.1486 6.6865 3.0504-7.4586-1.3053-8.7998-3.4567-26.032-7.1165-57-1.2849-10.872-2.7007-28.158-3.8496-47-0.18446-3.025-0.85379-14.05-1.4874-24.5s-1.5946-24.175-2.1355-30.5c-1.3008-15.211-2.2629-34.5-2.5187-50.5-0.82907-51.85-1.6812-87.756-2.3256-98-0.41521-6.6-0.42149-13.546-0.014-15.435 0.40755-1.8892 0.54482-8.6392 0.30506-15-0.23975-6.3608-0.9026-25.965-1.473-43.565-1.5525-47.903-1.9802-58.041-2.9117-69-0.9327-10.974-0.93127-10.978 3.6006-11.823l3.1528-0.58779 0.53503 2.2056c0.29426 1.213 0.79565 9.8556 1.1142 19.206 0.64923 19.056 1.9937 44.316 4.0982 77 1.2528 19.457 2.2015 40.518 3.9412 87.5 0.27495 7.425 0.80506 17.55 1.178 22.5 0.37297 4.95 0.76119 13.95 0.86272 20 0.10152 6.05 0.70297 16.85 1.3366 24s1.5882 21.1 2.1215 31c0.53322 9.9 1.6188 23.4 2.4123 30s1.9413 18.75 2.5506 27c0.60927 8.25 1.5577 17.925 2.1075 21.5 1.1639 7.5671 3.2718 26.756 5.8538 53.289 1.0056 10.334 2.0981 19.059 2.4277 19.389 0.96987 0.96983 2.6553-4.4915 2.6553-8.604 0-18.408 23.249-56.074 34.611-56.074h2.3114l1.1621 4.25c5.3435 19.542-8.9626 74.604-27.044 104.09l-5.0094 8.1686 1.029 6.4963c10.583 66.809 34.521 138.38 82.442 246.48 10.59 23.89 14.375 35.021 18.476 54.338 0.9719 4.5778 2.2742 8.8303 2.894 9.45l1.1269 1.1269 0.0407-1.95c0.0224-1.0725 0.2169-20.175 0.43226-42.45s0.69259-56.25 1.0605-75.5l0.66892-35-8.7321-11.5c-35.064-46.179-56.493-108.14-46.495-134.43 6.1346-16.135 46.037 47.743 52.621 84.239 0.85538 4.7412 2.3643 7.6472 3.4028 6.5533 0.44765-0.47155 1.0913-12.557 1.4303-26.857s0.86972-29.395 1.1794-33.545l0.56297-7.5448-5.1667-5.4552c-26.669-28.158-43.169-68.844-43.412-107.05l-0.093-14.593 1.3724-1.6571c6.5794-7.9439 33.978 31.706 43.08 62.343 5.7578 19.382 5.9908 17.712 7.6813-55.07l0.66366-28.57-12.412-12.43c-23.34-23.373-36.884-51.449-36.884-76.459 0-26.082 37.843 10.295 47.542 45.701 4.4858 16.375 4.6792 15.787 6.0765-18.491 2.4416-59.892 4.528-97.343 5.637-101.18 0.63562-2.2 1.2012-9.625 1.2569-16.5 0.18156-22.419 1.7254-51.466 2.8078-52.829 0.59478-0.74902 1.158-7.2934 1.2909-15 0.40802-23.659 1.4844-41.458 2.883-47.671 0.7453-3.3111 1.6398-15.635 1.9961-27.5 0.35506-11.825 1.1442-24.875 1.7537-29s1.2187-12 1.3539-17.5c0.54801-22.3 2.1592-43.503 3.4213-45.023l1.2781-1.54-0.58902-9.2183c-0.32396-5.0701-0.16608-16.418 0.35085-25.218 0.51694-8.8 1.3706-23.425 1.8971-32.5 0.52645-9.075 1.2603-19.26 1.6307-22.634l0.67355-6.1339 7.9101-0.1092-0.59014 4.6885c-0.32458 2.5787-0.84094 17.064-1.1475 32.188s-0.69028 29.525-0.85278 32c-0.16249 2.475-0.79843 14.4-1.4132 26.5s-1.3663 26.275-1.6701 31.5-0.74679 20.075-0.98444 33c-0.23766 12.925-0.95076 27.241-1.5847 31.813-0.63391 4.5724-0.89049 9.6239-0.57017 11.226s0.12469 11.361-0.43473 21.687c-0.55942 10.326-1.6781 34.974-2.4859 54.774-2.5373 62.19-3.3118 79.659-4.0567 91.5-0.39793 6.325-0.7943 14.875-0.88081 19-0.27883 13.294-1.698 49.361-2.1249 54-0.22774 2.475-0.8507 16.425-1.3844 31-2.3676 64.663-3.1334 84.108-3.6624 93-0.66587 11.193 0.34727 11.052 3.5849-0.5 9.7018-34.615 57.155-89.312 57.07-65.781-0.0977 26.913-22.897 71.106-53.078 102.88l-9.6103 10.118-0.67095 28.891c-0.91929 39.584-1.5772 58.946-2.2106 65.055-1.6147 15.576 0.88583 14.465 5.0536-2.2454 13.631-54.651 53.859-114.57 84.826-126.34l2.6708-1.0154 2.2636 4.2296-1.1997 7.6035c-10.601 67.191-41.49 135.58-82.651 182.98-5.4321 6.2558-10.381 12.245-10.998 13.309-2.6696 4.6049-3.5147 177.01-0.88058 179.65 0.84319 0.8432 2.4684-1.9199 2.487-4.2282 0.0293-3.6325 8.9156-34.194 13.841-47.603 10.432-28.397 12.268-32.719 45.89-108 3.5618-7.975 8.4077-19.225 10.769-25s6.7672-16.35 9.7914-23.5c20.844-49.28 39.339-112.77 54.621-187.5 4.241-20.74 4.3713-21.45 9.1673-50 1.7093-10.175 3.7441-20.428 4.5218-22.785 0.77771-2.3567 1.414-7.1877 1.414-10.736 0-3.5479 0.44322-8.3697 0.98494-10.715s1.9058-11.689 3.0312-20.764 2.6856-20.1 3.467-24.5 1.6758-12.05 1.9877-17c0.31185-4.95 1.2019-12.825 1.9779-17.5s1.7071-11.875 2.069-16 1.2935-9.4282 2.0702-11.785c0.77665-2.3567 1.4166-7.0817 1.4221-10.5 9e-3 -5.6053 0.87344-14.337 3.9089-39.486 0.54905-4.5489 1.2946-9.8499 1.6566-11.78 0.3621-1.9302 0.77286-5.4083 0.9128-7.7293 0.22438-3.7214 1.5452-15.618 4.5208-40.72 0.48899-4.125 1.5858-14.7 2.4374-23.5s2.205-21.4 3.0076-28c0.80256-6.6 1.7208-16.95 2.0406-23s0.8468-12.688 1.1712-14.75l0.58977-3.75h2.7652c3.9453 0 4.2673 12.281 1.0226 39-1.8166 14.959-3.4854 37.297-3.2871 44 0.10576 3.575-0.7777 14.6-1.9632 24.5-1.1856 9.9-2.2543 21.6-2.3751 26-0.34498 12.571-2.4294 36.154-4.0426 45.737-0.8089 4.8054-1.1928 10.219-0.85316 12.029s-0.0889 8.3568-0.95228 14.547c-0.86341 6.1904-1.5752 13.602-1.5817 16.471-7e-3 2.8686-0.70035 7.6906-1.5418 10.716-0.84148 3.025-1.7126 10.225-1.9358 16-0.67039 17.343-3.8001 45.164-5.9621 53-0.83467 3.025-1.4822 8.2-1.4389 11.5 0.0433 3.3-1.1276 13.65-2.6018 23-1.4742 9.35-3.0578 19.925-3.5191 23.5-0.46126 3.575-1.3338 8.075-1.939 10-0.60521 1.925-1.5384 7.9932-2.0737 13.485-1.3266 13.608-13.874 71.484-21.531 99.317-2.7602 10.033-2.3841 11.163 1.9195 5.7664 16.583-20.794 31.447-32.465 48.423-38.023 25.619-8.3876-12.182 45.819-49.484 70.96-3.1919 2.1513-7.4574 5.1789-9.4788 6.728l-3.6754 2.8165-4.7016 14.225c-11.659 35.274-30.567 83.18-47.454 120.23-23.97 52.585-31.286 70.242-39.988 96.5-3.1896 9.625-7.3083 23.478-9.1527 30.785l-3.3534 13.285 1.5 0.9494c1.9397 1.2277 19.124 1.2634 22.325 0.046 1.3506-0.5135 4.6227-3.776 7.2715-7.25 10.168-13.336 28.092-34.105 59.821-69.316 12.176-13.512 21.858-24.639 28.593-32.859l6.4392-7.8595 0.092-14.141c0.35148-53.994 10.907-92.801 33.698-123.89 20.871-28.47 17.652 30.644-4.7958 88.054-2.4441 6.2514-4.4439 12.099-4.4439 12.995v1.6291l1.4141-1.4643c3.4581-3.5808 36.108-66.299 40.586-77.964 0.73905-1.925 4.1272-10.25 7.5292-18.5 6.8348-16.575 16.476-42.575 21.507-58 1.7939-5.5 4.4994-12.7 6.0123-16 3.2027-6.9861 4.9376-12.867 4.9454-16.764 3e-3 -1.52 0.43641-3.545 0.96298-4.5 1.1891-2.1566 13.043-42.279 13.043-44.147 0-0.7482 1.0992-2.3791 2.4428-3.6242 3.0527-2.8292 5.8863-12.194 5.0456-16.676-0.4174-2.2249 0.17318-5.7829 1.7932-10.804 1.3286-4.1174 3.893-13.561 5.6986-20.986l3.283-13.5 6.2368-6.615 0.0875-9.1925 0.0874-9.1925 4.4224-16.656c2.4323-9.1607 5.1365-17.486 6.0093-18.5 2.5071-2.9135 5.1857-14.115 4.4603-18.652-0.37665-2.3554 0.0179-6.8475 0.97283-11.077 0.88353-3.9133 2.5278-11.165 3.6538-16.115 1.1261-4.95 2.6526-9.9728 3.3922-11.162 0.73959-1.1889 2.0471-6.8139 2.9056-12.5 2.0327-13.463 6.2674-34.135 8.1611-39.838 1.9873-5.985 2.4793-8.5627 6.8714-36 0.74837-4.675 1.6736-9.5488 2.0562-10.831l0.69549-2.3306 2.1123 0.56697c1.1618 0.31183 2.4498 0.57311 2.8623 0.58062 1.5305 0.0279 0.27883 11.07-2.7786 24.514-0.75051 3.3-2.0682 10.95-2.9281 17-2.3812 16.752-4.5649 29.397-6.1597 35.669-0.79283 3.1178-1.815 8.5178-2.2714 12-0.84411 6.4397-6.6121 33.002-10.226 47.092-1.0948 4.2686-1.7447 8.159-1.4442 8.6453s-0.59022 5.7687-1.9794 11.739c-1.3892 5.9701-3.4054 15.13-4.4804 20.355-1.075 5.225-2.6599 11.489-3.5219 13.919-0.86203 2.4307-1.8044 7.3807-2.0942 11-0.28978 3.6193-2.3158 13.331-4.5022 21.581-4.026 15.191-4.5753 16.995-10.013 32.888l-3.0411 8.8881 1.1215 2.1119 1.1215 2.1119-5.1036 17.5c-2.807 9.625-5.6783 19.75-6.3806 22.5-0.70231 2.75-2.6926 8.3665-4.4228 12.481-1.7302 4.1146-3.1459 9.1115-3.1459 11.104 0 4.1126-12.372 42.5-19.362 60.077-5.731 14.411-5.7489 14.171 0.61205 8.1976 19.346-18.169 43.025-31.299 56.531-31.348 18.044-0.0653-30.87 50.921-67.676 70.543l-7.6056 4.0547-12.056 24.012c-10.613 21.138-20.108 38.67-26.635 49.176-4.1898 6.7442-0.5263 5.1379 12.191-5.3452 44.741-36.882 142.58-69.292 126.53-41.918-16.859 28.767-61.902 67.372-101.53 87.02-23.848 11.823-38.117 16.264-70.762 22.025l-9.2617 1.6343-16.738 18.654c-31.366 34.956-39.881 44.629-50.616 57.5l-10.731 12.866 0.30429 2.1336 0.3043 2.1336 21 0.7227c11.55 0.3975 25.725 1.2245 31.5 1.8378 5.775 0.6134 12.209 1.0844 14.297 1.0468 2.5423-0.046 3.5702 0.2986 3.1105 1.0424l-0.68655 1.1109 6.1483-0.4448c3.3816-0.2446 5.6652-0.1461 5.0746 0.2189-0.59051 0.3649 3.118 1.2131 8.2412 1.8847 17.001 2.2288 31.273 5.1965 32.491 6.7562 0.77462 0.9914 1.9277 1.2674 3.3752 0.808 1.4599-0.4634 1.9748-0.3357 1.5325 0.3799-0.69573 1.1258 0.75607 1.5793 8.3896 2.6211 4.8615 0.6635 8.0261 2.8427 8.0261 5.5268v1.7014l-6.75 0.6243c-3.7125 0.3434-8.4375 0.3492-10.5 0.013l-3.75-0.6116-0.0147-2.1191-0.0147-2.1192-1.2625 2.5c-3.7016 7.3298-35.777 12.971-91.208 16.04-22.577 1.2502-25.501 1.6945-12 1.8226 18.541 0.176 56.212-3.0572 79.941-6.861 6.8766-1.1023 7.0583-1.0207 6.0146 2.7015-0.43127 1.5381-0.7257 3.0879-0.65428 3.444 0.0714 0.3561-0.82514 0.3977-1.9923 0.092-1.3632-0.3565-1.8853-0.1716-1.4597 0.517 0.43255 0.6999-1.5089 1.2635-5.5936 1.624-12.397 1.0942-16.756 1.8296-16.756 2.8269 0 0.6016 1.3233 0.7699 3.25 0.4132 1.7875-0.3308 7.3-1.0228 12.25-1.5376 17.193-1.7882 39.296-7.6655 45.534-12.108 6.3466-4.5192 6.3456-3.4316-0.0232 24.581-6.6199 29.117-7.4683 30.523-20.82 34.509-2.3699 0.7074-4.6783 1.9945-5.1296 2.8603-1.1658 2.236-10.654 41.19-12.075 49.574-0.65251 3.85-1.8391 9.6272-2.6368 12.838-1.9649 7.9094-4.9972 22.064-7.3186 34.162-1.8717 9.7551-5.7944 27.942-8.6274 40-2.2818 9.7119-3.3585 14.688-4.3274 20-1.3673 7.4966-2.5106 9.7959-6.7 13.474-8.2389 7.2339-31.274 14.803-53.127 17.457l-5.25 0.6376z" fill="#829658"/>
<path d="m581 1404.8c-4.3e-4 -2.3564 0.87203-9.0094 1.9388-14.784 1.0668-5.775 2.9018-16.35 4.0778-23.5s2.9923-17.95 4.0362-24c2.2181-12.855 7.6018-46.055 9.5675-59 0.75164-4.95 2.2244-13.725 3.2727-19.5 2.3404-12.892 3.2163-12.122-12.401-10.911-67.354 5.2203-188.06 0.2634-236.49-9.7118-15.238-3.1384-15.672-3.3597-16.978-8.6441-0.57528-2.3282-1.5218-5.9643-2.1033-8.0804-1.4216-5.1728-1.3443-5.1989 9.8195-3.3148 66.435 11.212 167.1 14.595 247.72 8.3257l14.962-1.1635 0.78852-3.5c3.4638-15.374 9.2737-50.847 8.4611-51.659-0.20017-0.2002-3.6963 0.075-7.7691 0.6124-14.723 1.9411-41.254 3.0876-85.405 3.6904l-45 0.6144-25-1.7227c-26.455-1.823-27.951-2.0317-21.852-3.0488 7.3216-1.221 8.792-3.0486 3.3314-4.1408-6.9628-1.3925-3.2533-2.3458 9.1285-2.3458 15.588 0 16.561-0.8251 1.7936-1.5208-123.29-5.8078-156.87-23.07-61.401-31.557 7.15-0.6356 13.45-1.585 14-2.1098 0.64221-0.6127 0.10553-0.7714-1.5-0.4435-1.375 0.2808-7.1404 0.7852-12.812 1.1208l-10.312 0.6102 1.0485-1.9592 1.0485-1.9591 8.5001-0.7081c5.2067-0.4337 8.2625-1.0924 7.8869-1.7001-0.39067-0.6322 0.80697-0.7522 3.3005-0.3309 2.1525 0.3636 5.922 0.2231 8.3766-0.3123s7.5844-1.1213 11.4-1.3019l6.9367-0.3285 6.729 10.013c3.701 5.5072 8.9623 14.282 11.692 19.5l4.9628 9.487 10.254 0.2864 10.254 0.2865-0.64484-3.2242c-0.94079-4.704-9.7118-22.622-14.591-29.806-2.3145-3.4083-4.0554-6.3443-3.8686-6.5244 0.35213-0.3396 20.842-1.1599 20.841-0.8344-5.4e-4 0.1012 1.349 8.1927 2.999 17.981 1.65 9.7883 3 18.753 3 19.921v2.1243l6.75 0.6375c25.604 2.4181 30.67 1.1626 31.668-7.8483 0.36575-3.3 1.5868-12.075 2.7134-19.5l2.0484-13.5h24.532l-3.8646 6.1212c-5.2489 8.3139-14.951 28.911-15.17 32.205l-0.1778 2.6736 8.5887 0.2866c4.7238 0.1576 9.7021-0.1368 11.063-0.6542l2.4743-0.9407 1.2996-4.3458c2.2193-7.4211 12.567-26.141 18.416-33.316l2.4215-2.9706 1.3682 1.087c0.82658 0.6567 10.078 1.357 23.368 1.769 12.1 0.3751 26.05 1.1519 31 1.7263 4.95 0.5743 10.709 1.0112 12.797 0.971 2.5432-0.049 3.5703 0.2936 3.1105 1.0376l-0.68655 1.1109 6.1483-0.4448c3.3816-0.2446 5.6652-0.1461 5.0746 0.2189-0.59051 0.3649 3.118 1.2131 8.2412 1.8847 17.001 2.2288 31.273 5.1965 32.491 6.7562 0.77462 0.9914 1.9277 1.2674 3.3752 0.808 1.4599-0.4634 1.9748-0.3357 1.5325 0.3799-0.69573 1.1258 0.75607 1.5793 8.3896 2.6211 4.8615 0.6635 8.0261 2.8427 8.0261 5.5268v1.7014l-6.75 0.6243c-3.7125 0.3434-8.4375 0.3492-10.5 0.013l-3.75-0.6116-0.0147-2.1191-0.0147-2.1192-1.2625 2.5c-3.7016 7.3298-35.777 12.971-91.208 16.04-22.577 1.2502-25.501 1.6945-12 1.8226 18.541 0.176 56.212-3.0572 79.941-6.861 6.8766-1.1023 7.0583-1.0207 6.0146 2.7015-0.43127 1.5381-0.7257 3.0879-0.65428 3.444 0.0714 0.3561-0.82514 0.3977-1.9923 0.092-1.3632-0.3565-1.8853-0.1716-1.4597 0.517 0.43255 0.6999-1.5089 1.2635-5.5936 1.624-12.397 1.0942-16.756 1.8296-16.756 2.8269 0 0.6016 1.3233 0.7699 3.25 0.4132 1.7875-0.3308 7.3-1.0228 12.25-1.5376 17.193-1.7882 39.296-7.6655 45.534-12.108 6.3466-4.5192 6.3456-3.4316-0.0232 24.581-6.6199 29.117-7.4683 30.523-20.82 34.509-2.3699 0.7074-4.6783 1.9945-5.1296 2.8603-1.1658 2.236-10.654 41.19-12.075 49.574-0.65251 3.85-1.8391 9.6272-2.6368 12.838-1.9649 7.9094-4.9972 22.064-7.3186 34.162-1.8717 9.7551-5.7944 27.942-8.6274 40-2.2818 9.7119-3.3585 14.688-4.3274 20-1.3673 7.4966-2.5106 9.7959-6.7 13.474-8.2389 7.2339-31.274 14.803-53.127 17.457l-5.25 0.6376z" fill="#be6e43"/>
</svg>
